<svg
  xmlns="http://www.w3.org/2000/svg"
  width="32"
  height="32"
  viewBox="0 0 24 24"
  fill="none"
  stroke="currentColor"
  strokeWidth="2"
  strokeLinecap="round"
  strokeLinejoin="round"
  class="feather feather-github"
>
  <path d="M12 2C6.486 2 2 6.486 2 12.008c0 4.418 2.867 8.185 6.84 9.513.5.092.685-.217.685-.482 0-.237-.009-.866-.014-1.696-2.783.603-3.365-1.344-3.365-1.344-.452-1.152-1.104-1.46-1.104-1.46-.902-.616-.03-.616-.03-.616 1.06-.072 1.613 1.121 1.613 1.121.943 1.622 2.48 1.152 3.08.882.1-.66.368-1.152.67-1.42-2.448-.281-5.013-1.224-5.013-5.458 0-1.207.437-2.187 1.152-2.96-.116-.284-.5-1.43.11-2.978 0 0 .942-.299 3.094 1.14a10.043 10.043 0 0 1 2.827-.38c.96 0 1.936.129 2.86.38 2.152-1.439 3.093-1.14 3.093-1.14.61 1.548.227 2.694.111 2.978.716.773 1.153 1.753 1.153 2.96 0 4.236-2.565 5.177-5.013 5.458.399.34.76 1.02.76 1.998 0 1.263-.014 2.292-.014 2.605 0 .265.186.574.69.478C19.133 20.193 22 16.426 22 12.008 22 6.486 17.514 2 12 2z"></path>
</svg>
